<svg id="logo" width="150" height="150" viewBox="0 0 170 170" xmlns="http://www.w3.org/2000/svg">
    <path fill="#FFFFFF" d="M81.709,121.952 21.87,62.112 2.87,81.112 81.704,159.946 81.709,159.941 81.715,159.946 161.631,80.03 142.632,61.03zM41.641,42.341 41.641,42.341 26.318,57.664 66.27,97.614 66.268,97.615 81.59,112.935 96.913,97.615 96.911,97.614 138.063,56.462 123.876,42.277 123.877,42.276 118.203,36.603 118.204,36.603 114.374,32.772 109.254,27.653 109.253,27.654 102.882,21.283 66.358,57.806 81.679,73.128 103.296,51.511 107.834,56.049 81.59,82.292 56.962,57.663 98.114,16.513 82.792,1.19z"/>
</svg>